<svg width="9" height="10" viewBox="0 0 9 10" fill="none" xmlns="http://www.w3.org/2000/svg">
<path d="M2.46667 5.76576C3.05417 5.76576 3.525 6.24102 3.525 6.83249V8.25244C3.525 8.83975 3.05417 9.31876 2.46667 9.31876H1.05833C0.475 9.31876 0 8.83975 0 8.25244V6.83249C0 6.24102 0.475 5.76576 1.05833 5.76576H2.46667ZM7.27504 5.76576C7.85837 5.76576 8.33337 6.24102 8.33337 6.83249V8.25244C8.33337 8.83975 7.85837 9.31876 7.27504 9.31876H5.86671C5.27921 9.31876 4.80837 8.83975 4.80837 8.25244V6.83249C4.80837 6.24102 5.27921 5.76576 5.86671 5.76576H7.27504ZM2.46667 0.988281C3.05417 0.988281 3.525 1.46729 3.525 2.05502V3.47497C3.525 4.06644 3.05417 4.54128 2.46667 4.54128H1.05833C0.475 4.54128 0 4.06644 0 3.47497V2.05502C0 1.46729 0.475 0.988281 1.05833 0.988281H2.46667ZM7.27504 0.988281C7.85837 0.988281 8.33337 1.46729 8.33337 2.05502V3.47497C8.33337 4.06644 7.85837 4.54128 7.27504 4.54128H5.86671C5.27921 4.54128 4.80837 4.06644 4.80837 3.47497V2.05502C4.80837 1.46729 5.27921 0.988281 5.86671 0.988281H7.27504Z" fill="#B4B4B4"/>
</svg>
