<svg width="52" height="8" viewBox="0 0 52 8" fill="none" xmlns="http://www.w3.org/2000/svg">
<circle opacity="0.8" cx="4" cy="4" r="4" fill="white"/>
<circle opacity="0.8" cx="36" cy="4" r="4" fill="white"/>
<circle opacity="0.8" cx="48" cy="4" r="4" fill="white"/>
<rect x="12" width="16" height="8" rx="4" fill="white"/>
<path fill-rule="evenodd" clip-rule="evenodd" d="M17.5691 2.17426C17.6993 2.30439 17.6993 2.51537 17.5691 2.6455L16.4715 3.74277L17.5691 4.84003C17.6993 4.97016 17.6993 5.18115 17.5691 5.31128C17.4389 5.44141 17.2279 5.44141 17.0977 5.31128L15.7644 3.97839C15.6342 3.84826 15.6342 3.63728 15.7644 3.50714L17.0977 2.17426C17.2279 2.04413 17.4389 2.04413 17.5691 2.17426Z" fill="#293037"/>
<path fill-rule="evenodd" clip-rule="evenodd" d="M22.4309 2.17426C22.3007 2.30439 22.3007 2.51537 22.4309 2.6455L23.5285 3.74277L22.4309 4.84003C22.3007 4.97016 22.3007 5.18115 22.4309 5.31128C22.5611 5.44141 22.7721 5.44141 22.9023 5.31128L24.2356 3.97839C24.3658 3.84826 24.3658 3.63728 24.2356 3.50714L22.9023 2.17426C22.7721 2.04413 22.5611 2.04413 22.4309 2.17426Z" fill="#293037"/>
</svg>
