<svg width="24" height="24" viewBox="0 0 24 24" fill="none" xmlns="http://www.w3.org/2000/svg">
<circle opacity="0.8" cx="12" cy="12" r="12" fill="white"/>
<path fill-rule="evenodd" clip-rule="evenodd" d="M15.6 11.7429C15.6 11.8641 15.5526 11.9803 15.4682 12.066C15.3839 12.1517 15.2694 12.1998 15.1501 12.1998H9.93696L11.869 14.1609C11.9109 14.2033 11.9441 14.2538 11.9667 14.3093C11.9893 14.3648 12.001 14.4243 12.001 14.4843C12.001 14.5444 11.9893 14.6039 11.9667 14.6594C11.9441 14.7149 11.9109 14.7654 11.869 14.8078C11.8272 14.8503 11.7775 14.884 11.7229 14.907C11.6682 14.93 11.6096 14.9418 11.5505 14.9418C11.4913 14.9418 11.4327 14.93 11.3781 14.907C11.3234 14.884 11.2737 14.8503 11.2319 14.8078L8.53221 12.0664C8.49031 12.0239 8.45707 11.9735 8.43438 11.918C8.4117 11.8625 8.40002 11.803 8.40002 11.7429C8.40002 11.6828 8.4117 11.6233 8.43438 11.5678C8.45707 11.5123 8.49031 11.4618 8.53221 11.4194L11.2319 8.67794C11.3164 8.59214 11.431 8.54395 11.5505 8.54395C11.67 8.54395 11.7846 8.59214 11.869 8.67794C11.9535 8.76374 12.001 8.8801 12.001 9.00143C12.001 9.12277 11.9535 9.23913 11.869 9.32492L9.93696 11.286H15.1501C15.2694 11.286 15.3839 11.3341 15.4682 11.4198C15.5526 11.5055 15.6 11.6217 15.6 11.7429Z" fill="#293037"/>
</svg>
