<svg width="24" height="24" viewBox="0 0 24 24" fill="none" xmlns="http://www.w3.org/2000/svg">
<circle opacity="0.8" cx="12" cy="12" r="12" transform="matrix(-1 0 0 1 24 0)" fill="white"/>
<path fill-rule="evenodd" clip-rule="evenodd" d="M8.39996 11.7429C8.39996 11.8641 8.44737 11.9803 8.53175 12.066C8.61613 12.1517 8.73058 12.1998 8.84991 12.1998H14.063L12.131 14.1609C12.0891 14.2033 12.0559 14.2538 12.0333 14.3093C12.0107 14.3648 11.999 14.4243 11.999 14.4843C11.999 14.5444 12.0107 14.6039 12.0333 14.6594C12.0559 14.7149 12.0891 14.7654 12.131 14.8078C12.1728 14.8503 12.2225 14.884 12.2771 14.907C12.3318 14.93 12.3904 14.9418 12.4495 14.9418C12.5087 14.9418 12.5673 14.93 12.6219 14.907C12.6766 14.884 12.7262 14.8503 12.7681 14.8078L15.4678 12.0664C15.5097 12.0239 15.5429 11.9735 15.5656 11.918C15.5883 11.8625 15.6 11.803 15.6 11.7429C15.6 11.6828 15.5883 11.6233 15.5656 11.5678C15.5429 11.5123 15.5097 11.4618 15.4678 11.4194L12.7681 8.67794C12.6836 8.59214 12.569 8.54395 12.4495 8.54395C12.33 8.54395 12.2154 8.59214 12.131 8.67794C12.0465 8.76374 11.999 8.8801 11.999 9.00143C11.999 9.12277 12.0465 9.23913 12.131 9.32492L14.063 11.286H8.84991C8.73058 11.286 8.61613 11.3341 8.53175 11.4198C8.44737 11.5055 8.39996 11.6217 8.39996 11.7429Z" fill="#293037"/>
</svg>
